PathFileType	4	(X/Y/Z)	Patient4_TMGait_0pt5_02_left_15.trc.trc
DataRate	CameraRate	NumFrames	NumMarkers	Units	OrigDataRate	OrigDataStartFrame	OrigNumFrames
75.675675675676	75.675675675676	4	33	mm	75.675675675676	18	       141
Frame#	Time	Sacral			L.Shoulder			Chest			R.Shoulder			Neck			R.ASIS			L.ASIS			R.Thigh.Superior			R.Thigh.Lateral			R.Thigh.Inferior			R.Patella			L.Thigh.Superior			L.Thigh.Lateral			L.Thigh.Inferior			L.Patella			L.Shank.Superior			L.Shank.Lateral			L.Shank.Inferior			R.Shank.Superior			R.Shank.Lateral			R.Shank.Inferior			R.Heel			R.Midfoot.Superior			R.Midfoot.Lateral			R.Toe			L.Heel			L.Midfoot.Lateral			L.Midfoot.Superior			L.Toe			L.Elbow			L.Wrist			R.Elbow			R.Wrist			
		X1	Y1	Z1	X2	Y2	Z2	X3	Y3	Z3	X4	Y4	Z4	X5	Y5	Z5	X6	Y6	Z6	X7	Y7	Z7	X8	Y8	Z8	X9	Y9	Z9	X10	Y10	Z10	X11	Y11	Z11	X12	Y12	Z12	X13	Y13	Z13	X14	Y14	Z14	X15	Y15	Z15	X16	Y16	Z16	X17	Y17	Z17	X18	Y18	Z18	X19	Y19	Z19	X20	Y20	Z20	X21	Y21	Z21	X22	Y22	Z22	X23	Y23	Z23	X24	Y24	Z24	X25	Y25	Z25	X26	Y26	Z26	X27	Y27	Z27	X28	Y28	Z28	X29	Y29	Z29	X30	Y30	Z30	X31	Y31	Z31	X32	Y32	Z32	X33	Y33	Z33	

18	19.154642857143	581.343166134142	1014.627584276331	570.862642176237	750.239459301768	1438.756607901519	380.537047022632	871.757408355811	1357.306044847659	521.718981612051	820.589362589837	1429.862000533421	708.118211790193	774.277850674250	1493.827459866761	531.988428968623	813.840131271287	937.052872209071	659.668845406711	772.047728326735	960.765603760058	387.302288825494	817.575107566931	728.296984644086	630.314822889496	723.752783884392	631.805706437770	696.733490661117	782.983174772460	569.171912380109	612.458385228842	769.776461884361	484.943044314921	617.386980122958	843.481201153009	775.640553583727	416.567317266579	795.197920693826	651.471692775097	336.899971628085	894.793363713835	588.023420987124	400.568647651578	922.800107281208	525.755609214820	396.242551959030	909.878415163770	456.267750651465	383.827740200630	853.124736032335	323.936530408598	327.715474407427	944.136714785333	229.009176763488	384.346701792396	736.432986041327	399.476314300530	624.834032520208	660.121621350041	299.487363487492	685.575062982943	694.959333476913	203.804414211664	620.090169552362	552.966757496210	43.166729363079	583.882364822544	722.702078959666	96.426139294842	625.201543552236	633.561084774868	35.603877591903	661.733763348708	841.841973216166	43.886232257292	658.115935729577	870.621653061826	41.481453600558	417.788329927957	946.979159713697	52.409039967091	340.691555554691	1009.745741783245	136.281323784556	362.795435076280	1145.933731177676	120.249680293997	341.995720417774	606.037300963257	1111.193660067557	285.985727226039	570.476858819929	853.638539733062	290.000790903767	971.635574006414	1135.989740725541	823.122960428808	1200.054005125113	1211.443474442923	746.402018087986	
19	19.167857142857	581.759181701364	1013.814526304548	569.911255412016	749.599478680451	1437.916837570945	378.897529191626	871.520372897567	1356.613215435359	519.782857836305	820.755278293361	1429.235506292103	706.198655000441	773.918067222376	1493.015094071940	530.248500156730	814.124982824289	936.421343770818	658.544316702419	772.179965131502	959.542351690417	386.089631067404	816.046546914775	727.264385060569	629.387513971245	721.467472739598	631.361719018428	696.170217247134	779.813190826001	568.228371032531	611.952673954126	765.961200190009	483.989046179733	616.982084505710	843.475760222433	774.332207124248	415.206399518127	793.706941936559	649.398393309811	336.928438803738	893.898433819228	586.302145814209	399.670635029955	921.643882717135	524.171815777803	395.890657191247	908.717912620702	454.559010861002	383.962630594237	851.753043828655	321.948138789571	329.056030038606	943.371343799787	227.477992498753	385.363357593218	731.907977359050	398.818338860233	624.412156756716	655.072756217524	299.393328285565	685.362460511034	689.051840664676	203.410870411838	619.867491329514	546.286470297382	43.068096506788	583.926837664557	715.969014541996	96.337886842829	625.143911430869	626.855730104324	35.541907354911	661.738999439168	835.150869193654	43.812036593700	658.114947243539	869.975883999549	41.103003921894	420.347884523641	945.828414321735	50.843880909558	342.696611993411	1009.465777034817	133.966788796041	363.921728806044	1145.218634155505	116.404623359493	342.369595464067	602.658190836887	1111.699177303257	285.411977446914	565.859601621050	854.232961666634	289.850226032655	975.046723212291	1137.298305649327	819.976030330448	1200.782652777229	1218.349979821234	741.859476829990	
20	19.181071428571	582.359631209610	1012.757008445625	568.654506679309	748.992921782183	1436.896487877156	377.016800773294	871.248220189341	1355.892011340565	517.749745474256	820.635704342894	1428.561337949244	704.138360322081	773.429778003758	1492.092788563753	528.282439868848	814.597713564105	935.734244492707	657.445663382111	772.769496533665	958.138996301946	384.876152767335	814.964410514589	726.186639324418	628.520299046821	719.535641928474	630.833407916409	695.516526009627	777.110731419504	567.206682364538	611.437831743962	762.591340524572	482.880696908242	616.515509953205	844.042001437345	772.799461809674	413.882140609153	792.659197151331	647.116829307418	337.061166983985	893.384873667583	584.372322789799	398.903582800398	920.742606895016	522.100072019499	395.639318454355	907.455162980910	452.224882085911	384.229794881912	849.475495277200	319.724268415588	330.488726651183	941.024094321151	225.143506482246	386.511686721599	727.731046212496	398.062416919399	623.923402103205	650.274222972376	299.283397891933	685.096979616010	683.290844961287	202.953467648835	619.607600778360	539.621305195697	42.965064559769	583.970127088784	709.269955852464	96.246537609552	625.105152025891	620.164290642548	35.473577964251	661.741452547795	828.476096756588	43.685781334884	658.125772369444	866.462893015641	40.601479396084	422.816428840303	941.834892134892	48.848054536769	344.604757960386	1006.991975338026	130.541412934958	365.236041290889	1142.119892785105	110.402179488699	342.789291510963	599.974311524480	1111.725579872600	284.531911397464	562.386114333653	854.288195984031	289.432697313956	977.803998924823	1138.270915293567	816.780910502989	1201.127057921941	1224.040504620663	737.414148572699	
21	19.194285714286	583.136563416030	1011.480495331400	567.096734214028	748.436819957114	1435.711091488129	374.895723857492	870.956426369673	1355.160306753885	515.624330680992	820.243409070455	1427.860887943353	701.944267265434	772.832264922684	1491.081398423782	526.087093122054	815.258533625864	934.990330482055	656.365061647384	773.798253191837	956.591717697712	383.668700372582	814.333740659707	725.058775868293	627.733561641684	717.928651152681	630.231110868895	694.766700424771	774.861830410282	566.105527784578	610.917909923248	759.645590204694	481.626162179140	615.977262790494	845.094364514902	771.010646552799	412.615932181529	791.986681376948	644.685340032897	337.238411462586	893.141253334119	582.240698810068	398.279104058691	919.975742044467	519.603521526476	395.526663494902	906.089107723545	449.381806902825	384.613894994131	846.527535214907	317.286397517761	331.925135514152	937.449232238278	222.148297273151	387.764229716269	723.885661587090	397.220744039896	623.357338156448	645.709838849408	299.169140217575	684.772214683095	677.669574467729	202.446810357093	619.308488842160	532.971141439579	42.876221180358	584.014603125843	702.604823070748	96.154673677960	625.080336054834	613.489688518354	35.407453797119	661.743717895117	821.818845972977	43.505365864033	658.150013913870	860.671370639477	39.972895124072	425.061580175262	935.658212603805	46.543881960381	346.361334517070	1002.825076733270	126.235158914095	366.770208321454	1137.197965000616	102.690432232512	343.439272822829	598.008032922430	1111.266033045473	283.325570348547	560.064430022616	853.800490471655	288.723811183960	979.896219342899	1138.893222107190	813.581229826030	1201.138078454611	1228.503578897353	733.100509051169	
